<svg xmlns="http://www.w3.org/2000/svg" width="24" height="24" viewBox="0 0 24 24">
  <g id="attachments" transform="translate(0 -8.3)">
    <path id="Path_196" data-name="Path 196" d="M4.2,11.186V24.452c0,.3.187.608.45.608H24.484a.552.552,0,0,0,.45-.608V11.186c0-.3-.187-.608-.45-.608H24a.552.552,0,0,1-.45-.608V8.908c0-.3-.187-.608-.45-.608H15.786a.552.552,0,0,0-.45.608v1.114c0,.3-.187.608-.45.608H4.65C4.387,10.578,4.2,10.832,4.2,11.186Z" transform="translate(-2.625)" fill="#4e586d"/>
    <path id="Path_197" data-name="Path 197" d="M4.2,11.937V25.2c0,.3.187.608.45.608H24.484a.552.552,0,0,0,.45-.608V11.937c0-.3-.187-.608-.45-.608H24a.552.552,0,0,1-.45-.608V9.608c0-.3-.187-.608-.45-.608H15.786a.552.552,0,0,0-.45.608v1.114c0,.3-.187.608-.45.608H4.65C4.387,11.329,4.2,11.582,4.2,11.937Z" transform="translate(-2.625 -0.346)" fill="#9aa5b1"/>
    <path id="Path_198" data-name="Path 198" d="M1.65,36.138h20.4c.225,0,.412-.2.45-.506L24,17.758a.553.553,0,0,0-.45-.658H.45c-.262,0-.45.3-.45.658L1.2,35.632C1.237,35.885,1.425,36.138,1.65,36.138Z" transform="translate(0 -4.344)" fill="#14213d"/>
    <path id="Path_199" data-name="Path 199" d="M1.65,37.138h20.4c.225,0,.412-.2.45-.506L24,18.758a.553.553,0,0,0-.45-.658H.45c-.262,0-.45.3-.45.658L1.2,36.632C1.237,36.885,1.425,37.138,1.65,37.138Z" transform="translate(0 -4.838)" fill="#4e586d"/>
    <path id="Path_200" data-name="Path 200" d="M26.7,32.162a1.708,1.708,0,0,1-1.387-.759l-4.124-5.57a2.314,2.314,0,0,1,0-2.582,1.126,1.126,0,0,1,1.912,0l3.524,4.759-.45.608-3.524-4.759a.615.615,0,0,0-1.012,0,1.285,1.285,0,0,0,0,1.367l4.124,5.57a1.1,1.1,0,0,0,.937.506,1.239,1.239,0,0,0,.937-.506,2.023,2.023,0,0,0,.375-1.266,2.422,2.422,0,0,0-.375-1.266l-4.724-6.329a1.8,1.8,0,0,0-3.037,0,3.437,3.437,0,0,0-.637,2.076,3.548,3.548,0,0,0,.637,2.076L21.3,28.01l-.45.608-1.425-1.924a4.778,4.778,0,0,1,0-5.367,2.31,2.31,0,0,1,3.937,0l4.687,6.329a3.4,3.4,0,0,1,0,3.747A1.6,1.6,0,0,1,26.7,32.162Z" transform="translate(-11.626 -3.355)" fill="#9aa5b1"/>
  </g>
</svg>
