<svg xmlns="http://www.w3.org/2000/svg" width="24" height="24" viewBox="0 0 24 24">
  <g id="gov-info" transform="translate(-2 -5.959)">
    <path id="Path_202" data-name="Path 202" d="M29.9,20.328V35.37H21.5V20.328l4.2-6.518Z" transform="translate(-11.7 -7.851)" fill="#4e586d"/>
    <rect id="Rectangle_36" data-name="Rectangle 36" width="4" height="6.343" transform="translate(12 21.176)" fill="#9aa5b1"/>
    <path id="Path_203" data-name="Path 203" d="M5.33,59.952,6,58H26l.668,1.952" transform="translate(-1.998 -30.481)" fill="#9aa5b1"/>
    <rect id="Rectangle_37" data-name="Rectangle 37" width="4.4" height="14.881" transform="translate(5 12.638)" fill="#4e586d"/>
    <path id="Path_204" data-name="Path 204" d="M12.01,19.5l-2.8,3.415h4.62l2.2-3.415Z" transform="translate(-4.326 -10.765)" fill="#4e586d"/>
    <path id="Path_205" data-name="Path 205" d="M37.74,19.5l2.2,3.415h4.62L41.76,19.5Z" transform="translate(-21.444 -10.765)" fill="#4e586d"/>
    <rect id="Rectangle_38" data-name="Rectangle 38" width="4.4" height="14.881" transform="translate(18.6 12.638)" fill="#4e586d"/>
    <rect id="Rectangle_39" data-name="Rectangle 39" width="24" height="0.976" transform="translate(2 28.983)" fill="#4e586d"/>
    <ellipse id="Ellipse_46" data-name="Ellipse 46" cx="2.8" cy="3.415" rx="2.8" ry="3.415" transform="translate(11.2 10.443)" fill="#9aa5b1"/>
    <rect id="Rectangle_40" data-name="Rectangle 40" width="1.6" height="2.927" transform="translate(6.4 14.346)" fill="#9aa5b1"/>
    <rect id="Rectangle_41" data-name="Rectangle 41" width="1.6" height="2.927" transform="translate(6.4 19.713)" fill="#9aa5b1"/>
    <rect id="Rectangle_42" data-name="Rectangle 42" width="1.6" height="2.927" transform="translate(20 14.346)" fill="#9aa5b1"/>
    <rect id="Rectangle_43" data-name="Rectangle 43" width="1.6" height="2.927" transform="translate(20 19.713)" fill="#9aa5b1"/>
  </g>
</svg>
