<svg xmlns="http://www.w3.org/2000/svg" width="24" height="24" viewBox="0 0 24 24">
  <g id="log" transform="translate(-65.195)">
    <path id="needs3" d="M23.691,12.112a8.122,8.122,0,0,0-5.6-2.207,8.205,8.205,0,0,0-7.941,6.19.589.589,0,0,1-.566.445h-2.8a.585.585,0,0,1-.576-.692,12.1,12.1,0,0,1,20.248-6.5L28.2,7.607a1.172,1.172,0,0,1,2,.828v6.538a1.169,1.169,0,0,1-1.171,1.171H22.486a1.171,1.171,0,0,1-.828-2Z" transform="translate(59 -6)" fill="#4e586d"/>
    <path id="needs3-2" data-name="needs3" d="M17.495,6.2a8.057,8.057,0,0,0-5.6-2.24A8.229,8.229,0,0,0,3.95,10.246a.59.59,0,0,1-.566.452H.586A.591.591,0,0,1,.01,10,12.15,12.15,0,0,1,11.9,0a11.962,11.962,0,0,1,8.358,3.4L22,1.631a1.17,1.17,0,0,1,2,.84V9.106a1.178,1.178,0,0,1-1.171,1.189H16.29a1.191,1.191,0,0,1-.828-2.029Z" transform="translate(89.194 24) rotate(180)" fill="#9aa5b1"/>
  </g>
</svg>
