<svg xmlns="http://www.w3.org/2000/svg" width="32" height="32" viewBox="0 0 32 32">
  <g id="msg-icon" transform="translate(-106 -24)">
    <circle id="Ellipse_4" data-name="Ellipse 4" cx="16" cy="16" r="16" transform="translate(106 24)" fill="#4e586d"/>
    <g id="chat" transform="translate(114 32)">
      <path id="Path_2" data-name="Path 2" d="M6.8,12h0L10,14l-.8-2h0A4.8,4.8,0,0,0,14,7.2V6.8A4.8,4.8,0,0,0,9.2,2H6.8A4.8,4.8,0,0,0,2,6.8v.4A4.8,4.8,0,0,0,6.8,12Z" transform="translate(0 0)" fill="#fff"/>
      <path id="Path_3" data-name="Path 3" d="M23,14.8v.4a4.8,4.8,0,0,0,3.576,4.64L26,18.4a4.8,4.8,0,0,0,4.8-4.8v-.4A4.778,4.778,0,0,0,29.576,10H27.8A4.8,4.8,0,0,0,23,14.8Z" transform="translate(-16.8 -6.4)" fill="#fff"/>
      <path id="Path_4" data-name="Path 4" d="M21,16.4H14.2a.2.2,0,1,1,0-.4H21a.2.2,0,0,1,0,.4Zm0,2H14.2a.2.2,0,1,1,0-.4H21a.2.2,0,0,1,0,.4Zm0,2H17.6a.2.2,0,0,1,0-.4H21a.2.2,0,0,1,0,.4Z" transform="translate(-9.6 -11.2)" fill="#fff"/>
    </g>
  </g>
</svg>
