<svg xmlns="http://www.w3.org/2000/svg" width="23" height="24.604" viewBox="0 0 23 24.604">
  <g id="needs" transform="translate(-578.999 -1278.759)">
    <g id="Group_197" data-name="Group 197" transform="translate(50.105 124.423)">
      <path id="Path_143" data-name="Path 143" d="M540.391,1164.166v14.774s-8.093-3.463-11.484-4.911l-.01-.016v-14.765l.01.018,11.474,4.91Z" fill="#4e586d" fill-rule="evenodd"/>
      <path id="Path_144" data-name="Path 144" d="M551.875,1159.243l-.01.018-11.475,4.911v14.764l11.475-4.911.01-.018Z" fill="#14213d" fill-rule="evenodd"/>
      <path id="Path_145" data-name="Path 145" d="M540.2,227.623l-11.3,4.91v.012l11.5,4.933,11.5-4.946-11.385-4.91h-.31Z" transform="translate(0 926.713)" fill="#4e586d" fill-rule="evenodd"/>
      <path id="Path_146" data-name="Path 146" d="M548.089,1172.548l-2.868,1.228L542.352,1175m2.869-3.2-2.868,1.227" fill="#fff" stroke="#4e586d" stroke-linecap="round" stroke-linejoin="round" stroke-width="0.908"/>
    </g>
    <path id="Path_147" data-name="Path 147" d="M594.043,1280.24l-.071.026-11.419,4.938v6.935l2.027-1,2,3,0-7.206L598,1281.943Z" fill="#9aa5b1" fill-rule="evenodd"/>
  </g>
</svg>
