<svg xmlns="http://www.w3.org/2000/svg" width="32" height="32" viewBox="0 0 32 32">
  <g id="print" transform="translate(-56 4)">
    <circle id="Ellipse_6" data-name="Ellipse 6" cx="16" cy="16" r="16" transform="translate(56 -4)" fill="#9aa5b1"/>
    <g id="office" transform="translate(61 -1020.36)">
      <path id="Path_32" data-name="Path 32" d="M10,1032.157v-5.22a.558.558,0,0,1,.545-.571h4.364l1.636,1.714v4.077" transform="translate(-2.273 -0.002)" fill="#fff"/>
      <path id="Path_33" data-name="Path 33" d="M6.636,1035.36h8.727A1.673,1.673,0,0,1,17,1037.074v3.429H5v-3.429a1.673,1.673,0,0,1,1.636-1.714Z" transform="translate(0 -3.857)" fill="#4e586d"/>
      <path id="Path_34" data-name="Path 34" d="M16.545,1040.86V1044a.558.558,0,0,1-.545.571H10.545A.558.558,0,0,1,10,1044v-3.143h6.545Z" transform="translate(-2.273 -6.214)" fill="#fff"/>
      <ellipse id="Ellipse_13" data-name="Ellipse 13" cx="0.409" cy="0.429" rx="0.409" ry="0.429" transform="translate(6.091 1032.36)" fill="#fff"/>
      <ellipse id="Ellipse_14" data-name="Ellipse 14" cx="0.409" cy="0.429" rx="0.409" ry="0.429" transform="translate(7.455 1032.36)" fill="#fff"/>
      <path id="Path_36" data-name="Path 36" d="M20.636,1028.074H19.614a.627.627,0,0,1-.614-.643v-1.071" transform="translate(-6.364)" fill="#f3f3f3"/>
      <rect id="Rectangle_19" data-name="Rectangle 19" width="7.636" height="0.571" transform="translate(7.182 1034.36)" fill="#e4e7eb"/>
    </g>
  </g>
</svg>
