<svg xmlns="http://www.w3.org/2000/svg" width="24" height="24" viewBox="0 0 24 24">
  <g id="ongoing-projects" transform="translate(-2 -2.7)">
    <path id="Path_77" data-name="Path 77" d="M64.186,67.21a2.741,2.741,0,0,0,.965.98,2.56,2.56,0,0,0,.753.313,2.609,2.609,0,0,0,.7.078,4.2,4.2,0,0,0,.7-.078,2.56,2.56,0,0,0,.753-.313,2.741,2.741,0,0,0,.965-.98,2.64,2.64,0,0,0,.309-.764,2.722,2.722,0,0,0,.077-.705,4.379,4.379,0,0,0-.077-.705,2.64,2.64,0,0,0-.309-.764,2.741,2.741,0,0,0-.965-.98,2.56,2.56,0,0,0-.753-.313,2.609,2.609,0,0,0-.7-.078,4.2,4.2,0,0,0-.7.078,2.56,2.56,0,0,0-.753.313,2.741,2.741,0,0,0-.965.98,2.64,2.64,0,0,0-.309.764,2.722,2.722,0,0,0-.077.705,4.378,4.378,0,0,0,.077.705A2.64,2.64,0,0,0,64.186,67.21Z" transform="translate(-49.868 -48.406)" fill="#4e586d"/>
    <path id="Path_78" data-name="Path 78" d="M47.7,37.711h-.56a7.577,7.577,0,0,0-1.294-3.154l.386-.392a1.3,1.3,0,0,0,0-1.8,1.257,1.257,0,0,0-1.776,0l-.386.392a7.173,7.173,0,0,0-3.089-1.313v-.568A1.262,1.262,0,0,0,39.729,29.6a1.2,1.2,0,0,0-.927.431,1.861,1.861,0,0,1,.232.921,1.924,1.924,0,0,1-1.467,1.861,4.7,4.7,0,0,1-.483,1.156,1.919,1.919,0,0,1,.212.451,5.111,5.111,0,0,1,1.178-.47,5.1,5.1,0,0,1,2.51,0,4.612,4.612,0,0,1,1.352.568,5.087,5.087,0,0,1,1.776,1.8,4.992,4.992,0,0,1,.56,1.371,5.327,5.327,0,0,1,0,2.547,4.755,4.755,0,0,1-.56,1.371,5.087,5.087,0,0,1-1.776,1.8,4.841,4.841,0,0,1-1.352.568,5.1,5.1,0,0,1-2.51,0,4.611,4.611,0,0,1-1.352-.568,5.087,5.087,0,0,1-1.776-1.8,4.992,4.992,0,0,1-.56-1.371,5.327,5.327,0,0,1,0-2.547,6.442,6.442,0,0,1,.29-.862,1.937,1.937,0,0,1-.579-.255,8.329,8.329,0,0,1-1.139.49,1.856,1.856,0,0,1-1.834,1.489,1.9,1.9,0,0,1-.869-.216,1.287,1.287,0,0,0-.154.607,1.262,1.262,0,0,0,1.255,1.273h.56a7.577,7.577,0,0,0,1.294,3.154l-.386.392a1.3,1.3,0,0,0,0,1.8,1.246,1.246,0,0,0,1.776,0l.386-.392a7.606,7.606,0,0,0,3.109,1.313v.568a1.255,1.255,0,1,0,2.51,0v-.568a7.351,7.351,0,0,0,3.109-1.313l.386.392a1.246,1.246,0,0,0,1.776,0,1.3,1.3,0,0,0,0-1.8l-.386-.392a7.84,7.84,0,0,0,1.294-3.154h.56A1.262,1.262,0,0,0,49,38.945,1.315,1.315,0,0,0,47.7,37.711Z" transform="translate(-22.997 -21.63)" fill="#4e586d"/>
    <path id="Path_79" data-name="Path 79" d="M7.619,15.043a.888.888,0,1,0,1.776,0v-.392a5.139,5.139,0,0,0,2.2-.921l.27.274a.87.87,0,0,0,.618.255A.839.839,0,0,0,13.1,14a.908.908,0,0,0,0-1.273l-.27-.274a5.3,5.3,0,0,0,.907-2.233h.386a.9.9,0,0,0,0-1.8h-.386a5.56,5.56,0,0,0-.907-2.233l.27-.274a.908.908,0,0,0,0-1.273.877.877,0,0,0-1.255,0l-.251.274a5.139,5.139,0,0,0-2.2-.921V3.6a.888.888,0,1,0-1.776,0v.392a5.424,5.424,0,0,0-2.182.921l-.27-.274a.877.877,0,0,0-1.255,0,.908.908,0,0,0,0,1.273l.27.274a5.3,5.3,0,0,0-.907,2.233H2.888a.9.9,0,0,0,0,1.8h.386a5.3,5.3,0,0,0,.907,2.233l-.27.274a.908.908,0,0,0,0,1.273.87.87,0,0,0,.618.255A.81.81,0,0,0,5.147,14l.27-.274a5.139,5.139,0,0,0,2.2.921v.392ZM7.039,11.83a2.961,2.961,0,0,1-1-1.019,2.548,2.548,0,0,1-.309-.784,2.954,2.954,0,0,1-.1-.705,2.7,2.7,0,0,1,.1-.705,3.884,3.884,0,0,1,.309-.784,2.961,2.961,0,0,1,1-1.019A2.47,2.47,0,0,1,7.812,6.5a2.833,2.833,0,0,1,.7-.1,2.592,2.592,0,0,1,.7.1,3.764,3.764,0,0,1,.772.313,2.961,2.961,0,0,1,1,1.019,2.548,2.548,0,0,1,.309.784,2.954,2.954,0,0,1,.1.705,2.7,2.7,0,0,1-.1.705,3.884,3.884,0,0,1-.309.784,2.961,2.961,0,0,1-1,1.019,2.47,2.47,0,0,1-.772.313,2.833,2.833,0,0,1-.7.1,2.592,2.592,0,0,1-.7-.1A2.914,2.914,0,0,1,7.039,11.83Z" fill="#9aa5b1"/>
  </g>
</svg>
