<svg xmlns="http://www.w3.org/2000/svg" width="24" height="24" viewBox="0 0 24 24">
  <g id="reports" transform="translate(-5.5 -0.5)">
    <rect id="Rectangle_49" data-name="Rectangle 49" width="24" height="20.129" rx="2" transform="translate(5.5 4.371)" fill="#4e586d"/>
    <path id="Path_221" data-name="Path 221" d="M19.929,2.823V2.435C19.929,1.367,18.649.5,17.071.5h0c-1.578,0-2.857.867-2.857,1.935v.387H13.071c-1.262,0-2.286.693-2.286,1.548h0c0,.855,1.023,1.548,2.286,1.548h8c1.262,0,2.286-.693,2.286-1.548h0c0-.855-1.023-1.548-2.286-1.548ZM15.357,13.661v.774c0,.428-.512.774-1.143.774H9.643c-.631,0-1.143-.347-1.143-.774v-3.1c0-.428.512-.774,1.143-.774h4.571m1.143,10.065V21.4c0,.428-.512.774-1.143.774H9.643c-.631,0-1.143-.347-1.143-.774v-3.1c0-.428.512-.774,1.143-.774h4.571" transform="translate(0.429)" fill="#dfe1f1"/>
    <path id="Path_222" data-name="Path 222" d="M19.643,2.823V2.435C19.643,1.367,18.364.5,16.786.5h0c-1.578,0-2.857.867-2.857,1.935v.387H12.786c-1.262,0-2.286.693-2.286,1.548h0c0,.855,1.023,1.548,2.286,1.548h8c1.262,0,2.286-.693,2.286-1.548h0c0-.855-1.023-1.548-2.286-1.548Z" transform="translate(0.714)" fill="#4e586d"/>
    <path id="Path_223" data-name="Path 223" d="M15.357,16.6v.774c0,.428-.512.774-1.143.774H9.643c-.631,0-1.143-.347-1.143-.774v-3.1c0-.428.512-.774,1.143-.774h4.571c.631,0,1.143.347,1.143.774Z" transform="translate(0.429 -2.935)" fill="#9aa5b1"/>
    <path id="Path_225" data-name="Path 225" d="M15.357,25.6v.774c0,.428-.512.774-1.143.774H9.643c-.631,0-1.143-.347-1.143-.774v-3.1c0-.428.512-.774,1.143-.774h4.571c.631,0,1.143.347,1.143.774Z" transform="translate(0.429 -4.968)" fill="#9aa5b1"/>
    <path id="Path_227" data-name="Path 227" d="M19.429,10.774H12.571c-.316,0-.571-.173-.571-.387s.256-.387.571-.387h6.857c.316,0,.571.173.571.387S19.744,10.774,19.429,10.774Zm5.714,3.871H18.286c-.316,0-.571-.173-.571-.387s.256-.387.571-.387h6.857c.316,0,.571.173.571.387S25.458,14.645,25.143,14.645Zm0,1.548H18.286c-.316,0-.571-.173-.571-.387s.256-.387.571-.387h6.857c.316,0,.571.173.571.387S25.458,16.194,25.143,16.194Zm0,5.419H18.286c-.316,0-.571-.173-.571-.387s.256-.387.571-.387h6.857c.316,0,.571.173.571.387S25.458,21.613,25.143,21.613Zm0,1.548H18.286c-.316,0-.571-.173-.571-.387s.256-.387.571-.387h6.857c.316,0,.571.173.571.387S25.458,23.161,25.143,23.161Z" transform="translate(0.929 -2.145)" fill="#9aa5b1"/>
  </g>
</svg>
