<svg xmlns="http://www.w3.org/2000/svg" width="24" height="24" viewBox="0 0 24 24">
  <g id="search" transform="translate(-3.502 -3.502)">
    <path id="Path_481" data-name="Path 481" d="M5.9,28.04a2.4,2.4,0,0,1-1.7-4.1l6.789-6.789a.48.48,0,0,1,.679,0l2.715,2.715a.48.48,0,0,1,0,.679L7.6,27.338a2.385,2.385,0,0,1-1.7.7Zm5.432-9.868-6.45,6.45a1.442,1.442,0,0,0,0,2.037,1.474,1.474,0,0,0,2.036,0l6.45-6.45-2.036-2.037Z" transform="translate(0 -0.538)" fill="#9aa5b1"/>
    <path id="Path_482" data-name="Path 482" d="M13.7,19.953a.482.482,0,0,1-.34-.14l-1.358-1.358a.48.48,0,0,1,0-.679l2.036-2.036a.48.48,0,0,1,.679,0L16.079,17.1a.48.48,0,0,1,0,.679l-2.036,2.036a.478.478,0,0,1-.339.14Zm-.679-1.838.679.679,1.358-1.358-.679-.679Z" transform="translate(-0.333 -0.482)" fill="#9aa5b1"/>
    <path id="Path_483" data-name="Path 483" d="M20.178,18.862a7.677,7.677,0,1,1,5.432-2.247A7.654,7.654,0,0,1,20.178,18.862Zm0-14.4a6.724,6.724,0,1,0,4.753,1.969,6.678,6.678,0,0,0-4.753-1.969Z" transform="translate(-0.359 0)" fill="#4e586d"/>
    <path id="Path_484" data-name="Path 484" d="M16.588,8.009a.48.48,0,0,1-.34-.819A5.756,5.756,0,0,1,21.812,5.7a.481.481,0,0,1-.249.928,4.807,4.807,0,0,0-4.637,1.242.478.478,0,0,1-.339.14Zm7.469,0a.482.482,0,0,1-.34-.14q-.149-.147-.308-.283t-.333-.255a.48.48,0,1,1,.551-.785c.137.1.269.2.4.3s.253.221.372.34a.48.48,0,0,1-.339.82Z" transform="translate(-0.502 -0.08)" fill="#4e586d"/>
  </g>
</svg>
