<svg xmlns="http://www.w3.org/2000/svg" width="48" height="51" viewBox="0 0 48 51">
  <g id="suggested" transform="translate(-705.252 -376)">
    <circle id="Ellipse_59" data-name="Ellipse 59" cx="24" cy="24" r="24" transform="translate(705.252 376)" fill="#4e586d"/>
    <g id="Group_637" data-name="Group 637">
      <circle id="Ellipse_94" data-name="Ellipse 94" cx="9" cy="9" r="9" transform="translate(735.251 409)" fill="#fff"/>
      <path id="Path_244" data-name="Path 244" d="M6.475,3.6,3.609.137c-.1-.182-.478-.182-.669,0L.075,3.6c-.191.364,0,.911.382.911H2.368v5.922a.441.441,0,0,0,.478.456H3.8a.441.441,0,0,0,.478-.456V4.51H6.093A.571.571,0,0,0,6.475,3.6Z" transform="translate(747.843 423.997) rotate(180)" fill="#6d4e4e"/>
    </g>
    <g id="coins" transform="translate(677.251 348)">
      <rect id="Rectangle_117" data-name="Rectangle 117" width="24" height="24" transform="translate(40 40)" fill="none"/>
      <path id="Path_486" data-name="Path 486" d="M10.1,12v4a3.115,3.115,0,0,0,1.55,2.515A9.831,9.831,0,0,0,17,19.9a9.831,9.831,0,0,0,5.35-1.385A3.115,3.115,0,0,0,23.9,16V12a.9.9,0,1,0-1.8,0v4c0,.4-.324.728-.765,1.028A8,8,0,0,1,17,18.1a8,8,0,0,1-4.335-1.072c-.441-.3-.765-.627-.765-1.028V12a.9.9,0,0,0-1.8,0Z" transform="translate(39 38.52)" fill="#fff" fill-rule="evenodd"/>
      <path id="Path_487" data-name="Path 487" d="M10.1,16v4a3.115,3.115,0,0,0,1.55,2.515A9.831,9.831,0,0,0,17,23.9a9.831,9.831,0,0,0,5.35-1.385A3.115,3.115,0,0,0,23.9,20V16a.9.9,0,1,0-1.8,0v4c0,.4-.324.728-.765,1.028A8,8,0,0,1,17,22.1a8,8,0,0,1-4.335-1.072c-.441-.3-.765-.627-.765-1.028V16a.9.9,0,0,0-1.8,0Z" transform="translate(39 38.52)" fill="#fff" fill-rule="evenodd"/>
      <path id="Path_488" data-name="Path 488" d="M17,8.1a9.829,9.829,0,0,0-5.349,1.385A3.116,3.116,0,0,0,10.1,12a3.116,3.116,0,0,0,1.551,2.515A9.829,9.829,0,0,0,17,15.9a9.829,9.829,0,0,0,5.349-1.385A3.116,3.116,0,0,0,23.9,12a3.116,3.116,0,0,0-1.551-2.515A9.829,9.829,0,0,0,17,8.1Zm0,1.8a8.014,8.014,0,0,1,4.335,1.072c.441.3.765.627.765,1.028s-.324.727-.765,1.028A8.014,8.014,0,0,1,17,14.1a8.014,8.014,0,0,1-4.335-1.072c-.441-.3-.765-.627-.765-1.028s.324-.727.765-1.028A8.014,8.014,0,0,1,17,9.9Z" transform="translate(39 38.52)" fill="#fff" fill-rule="evenodd"/>
      <path id="Path_489" data-name="Path 489" d="M10.1,12v4a2.845,2.845,0,0,0,1.027,2.1,7.538,7.538,0,0,0,3.7,1.61.9.9,0,1,0,.315-1.772,6.439,6.439,0,0,1-2.506-.933c-.425-.3-.736-.616-.736-1.008V12a.9.9,0,0,0-1.8,0Z" transform="translate(31 33)" fill="#fff" fill-rule="evenodd"/>
      <path id="Path_490" data-name="Path 490" d="M10.1,16v4a2.98,2.98,0,0,0,1.29,2.325,8.76,8.76,0,0,0,4.539,1.531.9.9,0,0,0,.15-1.794A6.943,6.943,0,0,1,12.5,20.906,1.242,1.242,0,0,1,11.9,20V16a.9.9,0,0,0-1.8,0Zm5.967-1.939A6.935,6.935,0,0,1,12.5,12.9a1.239,1.239,0,0,1-.6-.9c0-.4.324-.727.765-1.028A8.014,8.014,0,0,1,17,9.9a8.014,8.014,0,0,1,4.335,1.072c.441.3.765.627.765,1.028a.9.9,0,1,0,1.8,0,3.116,3.116,0,0,0-1.551-2.515A9.829,9.829,0,0,0,17,8.1a9.829,9.829,0,0,0-5.349,1.385A3.116,3.116,0,0,0,10.1,12a2.976,2.976,0,0,0,1.287,2.322,8.749,8.749,0,0,0,4.528,1.532.9.9,0,1,0,.152-1.793Z" transform="translate(31 33)" fill="#fff" fill-rule="evenodd"/>
    </g>
  </g>
</svg>
