<svg xmlns="http://www.w3.org/2000/svg" width="23.997" height="24" viewBox="0 0 23.997 24">
  <g id="users" transform="translate(-2.75 -2.748)">
    <path id="Path_478" data-name="Path 478" d="M4.1,20.29H8.387a2.939,2.939,0,0,1,.8-3.024,3.694,3.694,0,0,0,.607-1.63,10.8,10.8,0,0,1,2.573-6.155,8.621,8.621,0,0,1,4.295-2.538,6.161,6.161,0,0,0-5.742-4.192s-5.89-.367-6.633,6.728a5.4,5.4,0,0,1-1.416,3.23.324.324,0,0,0-.054.451,7.177,7.177,0,0,0,3.378,2.4,7.012,7.012,0,0,0-2.413,4.356S3.77,20.29,4.1,20.29Z" transform="translate(0 0)" fill="#9aa5b1"/>
    <path id="Path_479" data-name="Path 479" d="M10.336,25.268H23.543s.379-.021.32-.37a7.249,7.249,0,0,0-2.41-4.353,8.445,8.445,0,0,0,3.37-2.266.326.326,0,0,0,.021-.376,7.986,7.986,0,0,1-1.394-3.516s-.166-6.422-6.294-6.658c-6.37.236-6.632,6.706-6.631,6.729a5.4,5.4,0,0,1-1.416,3.229.325.325,0,0,0-.054.451,7.186,7.186,0,0,0,3.378,2.4A7.005,7.005,0,0,0,10.019,24.9.305.305,0,0,0,10.336,25.268Z" transform="translate(1.853 1.48)" fill="#4e586d"/>
  </g>
</svg>
